<?xml version="1.0" encoding="UTF-8"?>
<svg version="1.1" xmlns="http://www.w3.org/2000/svg" width="500" height="500">
<path d="M0 0 C165 0 330 0 500 0 C500 165 500 330 500 500 C335 500 170 500 0 500 C0 335 0 170 0 0 Z " fill="#1F1F1F" transform="translate(0,0)"/>
<path d="M0 0 C123.42 0 246.84 0 374 0 C374 102.96 374 205.92 374 312 C250.58 312 127.16 312 0 312 C0 209.04 0 106.08 0 0 Z " fill="#FEFEFE" transform="translate(63,25)"/>
<path d="M0 0 C10.30197216 -0.6788779 16.99732504 5.61137506 24.43359375 12.03125 C37.90350961 24.71446138 50.57143303 43.19670237 51.34960938 62.18261719 C51.47269553 75.63817197 46.85155216 85.00775234 39.80859375 96.34375 C40.66380615 96.60945801 41.51901855 96.87516602 42.40014648 97.14892578 C47.80463639 99.04345867 52.83927508 101.69241033 57.94946289 104.25634766 C59.86571892 105.21605815 61.78706736 106.16496855 63.70898438 107.11328125 C64.94173034 107.72851772 66.17416304 108.34438235 67.40625 108.9609375 C68.51492432 109.51378418 69.62359863 110.06663086 70.76586914 110.63623047 C75.61614198 113.35811189 79.60600048 116.12708173 81.80859375 121.34375 C82.04235173 124.36227702 81.98625897 127.32344126 81.80859375 130.34375 C82.69546875 130.26125 83.58234375 130.17875 84.49609375 130.09375 C88.53326093 130.39844186 89.94724086 131.56415005 92.80859375 134.34375 C93.97822904 136.68302057 93.93189964 138.04051648 93.92884827 140.64639282 C93.93091026 142.00098854 93.93091026 142.00098854 93.93301392 143.38294983 C93.92941864 144.3762883 93.92582336 145.36962677 93.92211914 146.39306641 C93.92226517 147.43699051 93.92241119 148.48091461 93.92256165 149.55647278 C93.92186297 153.01944023 93.91407266 156.4823544 93.90625 159.9453125 C93.90438566 162.34142019 93.90296183 164.73752827 93.90196228 167.13363647 C93.89813836 173.44983975 93.88830913 179.76602014 93.8772583 186.08221436 C93.86704149 192.52355642 93.86246408 198.96490217 93.85742188 205.40625 C93.84668677 218.0520934 93.82961183 230.6979198 93.80859375 243.34375 C99.74859375 243.34375 105.68859375 243.34375 111.80859375 243.34375 C112.38145807 257.37892588 112.38145807 257.37892588 107.80859375 262.34375 C107.35484375 262.92125 106.90109375 263.49875 106.43359375 264.09375 C101.82032058 267.64242167 96.26189427 267.6344775 90.68652344 267.61117554 C89.88525402 267.61570665 89.0839846 267.62023776 88.2584343 267.62490618 C85.58238661 267.63753315 82.90654287 267.63593094 80.23046875 267.63427734 C78.30830627 267.64026352 76.38614618 267.64706927 74.46398926 267.65463257 C69.24921909 267.67228728 64.03451457 267.67698763 58.81971741 267.67826414 C55.56156736 267.6796862 52.30343399 267.68395677 49.04528809 267.68925858 C37.67861878 267.70775466 26.31199636 267.71592941 14.9453125 267.71435547 C4.34905522 267.71315307 -6.2469987 267.73427585 -16.8432045 267.7658428 C-25.94229211 267.79198408 -35.04131319 267.80272372 -44.14043808 267.80144465 C-49.57437035 267.80093453 -55.00812173 267.80664569 -60.4420166 267.82780075 C-65.5507375 267.84714775 -70.65910422 267.84733181 -75.76783752 267.83276749 C-77.64234432 267.83067414 -79.5168731 267.83541153 -81.39134216 267.8474884 C-83.95109088 267.86291217 -86.50961385 267.85365242 -89.06933594 267.83822632 C-89.81039204 267.84851344 -90.55144814 267.85880057 -91.31496048 267.86939943 C-97.27186991 267.79010871 -100.47576414 265.57445602 -104.94140625 261.90625 C-109.34319556 256.40401336 -108.3374741 249.98983732 -108.19140625 243.34375 C-102.25140625 243.34375 -96.31140625 243.34375 -90.19140625 243.34375 C-90.20250931 242.01434891 -90.21361237 240.68494781 -90.22505188 239.31526184 C-90.32636328 226.79345513 -90.40134094 214.27173145 -90.45046711 201.74960804 C-90.47657242 195.31165818 -90.51198877 188.87403889 -90.56860352 182.4362793 C-90.62288809 176.22469008 -90.65281974 170.01341904 -90.66579247 163.80161095 C-90.67503859 161.43047768 -90.69309396 159.05936203 -90.72005653 156.68836403 C-90.75629805 153.36973928 -90.76135343 150.05243304 -90.7590332 146.73364258 C-90.77700958 145.75108994 -90.79498596 144.76853729 -90.81350708 143.75621033 C-90.77780229 139.04364839 -90.75097341 137.04222408 -87.71842957 133.25688171 C-86.88451187 132.62554825 -86.05059418 131.99421478 -85.19140625 131.34375 C-84.86140625 131.01375 -84.53140625 130.68375 -84.19140625 130.34375 C-82.19182261 130.30294217 -80.19095371 130.30120644 -78.19140625 130.34375 C-78.2378125 129.76367188 -78.28421875 129.18359375 -78.33203125 128.5859375 C-78.59379338 122.92065708 -78.1639854 119.70389784 -74.19140625 115.34375 C-67.81069761 110.45612373 -60.75421601 106.98631231 -53.50390625 103.59375 C-52.49779297 103.11292969 -51.49167969 102.63210937 -50.45507812 102.13671875 C-45.77040271 99.91944983 -41.17896113 97.80518005 -36.19140625 96.34375 C-36.73410156 95.44914062 -37.27679688 94.55453125 -37.8359375 93.6328125 C-45.73181145 80.40318012 -49.53326955 68.30445295 -46.5 52.8125 C-42.96180851 40.37701525 -36.21627232 30.33799055 -28.19140625 20.34375 C-27.49144531 19.46460937 -26.79148437 18.58546875 -26.0703125 17.6796875 C-19.3682851 9.735633 -10.53916788 1.65320281 0 0 Z " fill="#FEFEFE" transform="translate(245.19140625,48.65625)"/>
<path d="M0 0 C10.30197216 -0.6788779 16.99732504 5.61137506 24.43359375 12.03125 C37.90350961 24.71446138 50.57143303 43.19670237 51.34960938 62.18261719 C51.47269553 75.63817197 46.85155216 85.00775234 39.80859375 96.34375 C40.66380615 96.60945801 41.51901855 96.87516602 42.40014648 97.14892578 C47.80463639 99.04345867 52.83927508 101.69241033 57.94946289 104.25634766 C59.86571892 105.21605815 61.78706736 106.16496855 63.70898438 107.11328125 C64.94173034 107.72851772 66.17416304 108.34438235 67.40625 108.9609375 C68.51492432 109.51378418 69.62359863 110.06663086 70.76586914 110.63623047 C75.61614198 113.35811189 79.60600048 116.12708173 81.80859375 121.34375 C82.04235173 124.36227702 81.98625897 127.32344126 81.80859375 130.34375 C82.69546875 130.26125 83.58234375 130.17875 84.49609375 130.09375 C88.53326093 130.39844186 89.94724086 131.56415005 92.80859375 134.34375 C93.97822904 136.68302057 93.93189964 138.04051648 93.92884827 140.64639282 C93.93091026 142.00098854 93.93091026 142.00098854 93.93301392 143.38294983 C93.92941864 144.3762883 93.92582336 145.36962677 93.92211914 146.39306641 C93.92226517 147.43699051 93.92241119 148.48091461 93.92256165 149.55647278 C93.92186297 153.01944023 93.91407266 156.4823544 93.90625 159.9453125 C93.90438566 162.34142019 93.90296183 164.73752827 93.90196228 167.13363647 C93.89813836 173.44983975 93.88830913 179.76602014 93.8772583 186.08221436 C93.86704149 192.52355642 93.86246408 198.96490217 93.85742188 205.40625 C93.84668677 218.0520934 93.82961183 230.6979198 93.80859375 243.34375 C99.74859375 243.34375 105.68859375 243.34375 111.80859375 243.34375 C112.38145807 257.37892588 112.38145807 257.37892588 107.80859375 262.34375 C107.35484375 262.92125 106.90109375 263.49875 106.43359375 264.09375 C101.82032058 267.64242167 96.26189427 267.6344775 90.68652344 267.61117554 C89.88525402 267.61570665 89.0839846 267.62023776 88.2584343 267.62490618 C85.58238661 267.63753315 82.90654287 267.63593094 80.23046875 267.63427734 C78.30830627 267.64026352 76.38614618 267.64706927 74.46398926 267.65463257 C69.24921909 267.67228728 64.03451457 267.67698763 58.81971741 267.67826414 C55.56156736 267.6796862 52.30343399 267.68395677 49.04528809 267.68925858 C37.67861878 267.70775466 26.31199636 267.71592941 14.9453125 267.71435547 C4.34905522 267.71315307 -6.2469987 267.73427585 -16.8432045 267.7658428 C-25.94229211 267.79198408 -35.04131319 267.80272372 -44.14043808 267.80144465 C-49.57437035 267.80093453 -55.00812173 267.80664569 -60.4420166 267.82780075 C-65.5507375 267.84714775 -70.65910422 267.84733181 -75.76783752 267.83276749 C-77.64234432 267.83067414 -79.5168731 267.83541153 -81.39134216 267.8474884 C-83.95109088 267.86291217 -86.50961385 267.85365242 -89.06933594 267.83822632 C-89.81039204 267.84851344 -90.55144814 267.85880057 -91.31496048 267.86939943 C-97.27186991 267.79010871 -100.47576414 265.57445602 -104.94140625 261.90625 C-109.34319556 256.40401336 -108.3374741 249.98983732 -108.19140625 243.34375 C-102.25140625 243.34375 -96.31140625 243.34375 -90.19140625 243.34375 C-90.20250931 242.01434891 -90.21361237 240.68494781 -90.22505188 239.31526184 C-90.32636328 226.79345513 -90.40134094 214.27173145 -90.45046711 201.74960804 C-90.47657242 195.31165818 -90.51198877 188.87403889 -90.56860352 182.4362793 C-90.62288809 176.22469008 -90.65281974 170.01341904 -90.66579247 163.80161095 C-90.67503859 161.43047768 -90.69309396 159.05936203 -90.72005653 156.68836403 C-90.75629805 153.36973928 -90.76135343 150.05243304 -90.7590332 146.73364258 C-90.77700958 145.75108994 -90.79498596 144.76853729 -90.81350708 143.75621033 C-90.77780229 139.04364839 -90.75097341 137.04222408 -87.71842957 133.25688171 C-86.88451187 132.62554825 -86.05059418 131.99421478 -85.19140625 131.34375 C-84.86140625 131.01375 -84.53140625 130.68375 -84.19140625 130.34375 C-82.19182261 130.30294217 -80.19095371 130.30120644 -78.19140625 130.34375 C-78.2378125 129.76367188 -78.28421875 129.18359375 -78.33203125 128.5859375 C-78.59379338 122.92065708 -78.1639854 119.70389784 -74.19140625 115.34375 C-67.81069761 110.45612373 -60.75421601 106.98631231 -53.50390625 103.59375 C-52.49779297 103.11292969 -51.49167969 102.63210937 -50.45507812 102.13671875 C-45.77040271 99.91944983 -41.17896113 97.80518005 -36.19140625 96.34375 C-36.73410156 95.44914062 -37.27679688 94.55453125 -37.8359375 93.6328125 C-45.73181145 80.40318012 -49.53326955 68.30445295 -46.5 52.8125 C-42.96180851 40.37701525 -36.21627232 30.33799055 -28.19140625 20.34375 C-27.49144531 19.46460937 -26.79148437 18.58546875 -26.0703125 17.6796875 C-19.3682851 9.735633 -10.53916788 1.65320281 0 0 Z M-84.19140625 137.34375 C-84.28914565 138.78356214 -84.31772338 140.22813903 -84.31838989 141.67126465 C-84.32120972 142.60516525 -84.32402954 143.53906586 -84.32693481 144.50126648 C-84.32491058 145.53403214 -84.32288635 146.56679779 -84.32080078 147.63085938 C-84.3225531 148.71204544 -84.32430542 149.79323151 -84.32611084 150.90718079 C-84.33053183 154.50063659 -84.32759049 158.09404365 -84.32421875 161.6875 C-84.32489172 164.17232269 -84.32586168 166.65714531 -84.32711792 169.14196777 C-84.32878483 175.02688375 -84.32527202 180.91178187 -84.31996715 186.79669523 C-84.31621233 191.49744598 -84.31753992 196.19817581 -84.32177734 200.89892578 C-84.32755662 207.3644929 -84.32849078 213.83003971 -84.32522202 220.29560852 C-84.3245525 222.76768498 -84.32538202 225.2397623 -84.32770157 227.71183777 C-84.33022664 231.16012898 -84.32638955 234.60835435 -84.32080078 238.05664062 C-84.32282501 239.08940628 -84.32484924 240.12217194 -84.32693481 241.18623352 C-84.32411499 242.12013412 -84.32129517 243.05403473 -84.31838989 244.01623535 C-84.31801287 244.83256691 -84.31763584 245.64889847 -84.31724739 246.48996735 C-84.39441588 248.35993788 -84.39441588 248.35993788 -83.19140625 249.34375 C-81.00411701 249.44293212 -78.81356012 249.47007398 -76.62402344 249.47073364 C-75.92967068 249.47229363 -75.23531792 249.47385362 -74.51992416 249.47546089 C-72.17602207 249.47947311 -69.83218391 249.4762804 -67.48828125 249.47314453 C-65.81490033 249.47449847 -64.1415197 249.47627837 -62.46813965 249.47845459 C-57.91041845 249.48302976 -53.35271978 249.48123902 -48.79499817 249.4780755 C-44.03618303 249.47555233 -39.27736989 249.47788932 -34.51855469 249.47946167 C-26.52538708 249.48128349 -18.5322287 249.47887673 -10.5390625 249.47412109 C-1.28402339 249.46867845 7.97099369 249.4704411 17.22603226 249.4759475 C25.1572145 249.48047827 33.08839009 249.48112935 41.01957321 249.47850883 C45.76309317 249.47694586 50.50660277 249.47675284 55.25012207 249.48004532 C59.70860328 249.48292352 64.16705595 249.48094929 68.62553406 249.47515106 C70.26669772 249.47382319 71.90786376 249.47421804 73.54902649 249.47641373 C75.77978761 249.47912417 78.01045582 249.47574544 80.24121094 249.47073364 C81.49262878 249.47035662 82.74404663 249.46997959 84.03338623 249.46959114 C86.71665665 249.66047052 86.71665665 249.66047052 87.80859375 248.34375 C87.90633315 246.90393786 87.93491088 245.45936097 87.93557739 244.01623535 C87.93839722 243.08233475 87.94121704 242.14843414 87.94412231 241.18623352 C87.94209808 240.15346786 87.94007385 239.12070221 87.93798828 238.05664062 C87.9397406 236.97545456 87.94149292 235.89426849 87.94329834 234.78031921 C87.94771933 231.18686341 87.94477799 227.59345635 87.94140625 224 C87.94207922 221.51517731 87.94304918 219.03035469 87.94430542 216.54553223 C87.94597233 210.66061625 87.94245952 204.77571813 87.93715465 198.89080477 C87.93339983 194.19005402 87.93472742 189.48932419 87.93896484 184.78857422 C87.94474412 178.3230071 87.94567828 171.85746029 87.94240952 165.39189148 C87.94174 162.91981502 87.94256952 160.4477377 87.94488907 157.97566223 C87.94741414 154.52737102 87.94357705 151.07914565 87.93798828 147.63085938 C87.94102463 146.08171089 87.94102463 146.08171089 87.94412231 144.50126648 C87.94130249 143.56736588 87.93848267 142.63346527 87.93557739 141.67126465 C87.93520037 140.85493309 87.93482334 140.03860153 87.93443489 139.19753265 C88.01160338 137.32756212 88.01160338 137.32756212 86.80859375 136.34375 C84.62130451 136.24456788 82.43074762 136.21742602 80.24121094 136.21676636 C79.1996818 136.21442637 79.1996818 136.21442637 78.13711166 136.21203911 C75.79320957 136.20802689 73.44937141 136.2112196 71.10546875 136.21435547 C69.43208783 136.21300153 67.7587072 136.21122163 66.08532715 136.20904541 C61.52760595 136.20447024 56.96990728 136.20626098 52.41218567 136.2094245 C47.65337053 136.21194767 42.89455739 136.20961068 38.13574219 136.20803833 C30.14257458 136.20621651 22.1494162 136.20862327 14.15625 136.21337891 C4.90121089 136.21882155 -4.35380619 136.2170589 -13.60884476 136.2115525 C-21.540027 136.20702173 -29.47120259 136.20637065 -37.40238571 136.20899117 C-42.14590567 136.21055414 -46.88941527 136.21074716 -51.63293457 136.20745468 C-56.09141578 136.20457648 -60.54986845 136.20655071 -65.00834656 136.21234894 C-66.64951022 136.21367681 -68.29067626 136.21328196 -69.93183899 136.21108627 C-72.16260011 136.20837583 -74.39326832 136.21175456 -76.62402344 136.21676636 C-77.87544128 136.21714338 -79.12685913 136.21752041 -80.41619873 136.21790886 C-83.09946915 136.02702948 -83.09946915 136.02702948 -84.19140625 137.34375 Z " fill="#FBFBFB" transform="translate(245.19140625,48.65625)"/>
<path d="M0 0 C10.30197216 -0.6788779 16.99732504 5.61137506 24.43359375 12.03125 C37.90350961 24.71446138 50.57143303 43.19670237 51.34960938 62.18261719 C51.47269553 75.63817197 46.85155216 85.00775234 39.80859375 96.34375 C40.66380615 96.60945801 41.51901855 96.87516602 42.40014648 97.14892578 C47.80463639 99.04345867 52.83927508 101.69241033 57.94946289 104.25634766 C59.86571892 105.21605815 61.78706736 106.16496855 63.70898438 107.11328125 C64.94173034 107.72851772 66.17416304 108.34438235 67.40625 108.9609375 C68.51492432 109.51378418 69.62359863 110.06663086 70.76586914 110.63623047 C75.61614198 113.35811189 79.60600048 116.12708173 81.80859375 121.34375 C82.04235173 124.36227702 81.98625897 127.32344126 81.80859375 130.34375 C82.69546875 130.26125 83.58234375 130.17875 84.49609375 130.09375 C88.53326093 130.39844186 89.94724086 131.56415005 92.80859375 134.34375 C93.97822904 136.68302057 93.93189964 138.04051648 93.92884827 140.64639282 C93.93091026 142.00098854 93.93091026 142.00098854 93.93301392 143.38294983 C93.92941864 144.3762883 93.92582336 145.36962677 93.92211914 146.39306641 C93.92226517 147.43699051 93.92241119 148.48091461 93.92256165 149.55647278 C93.92186297 153.01944023 93.91407266 156.4823544 93.90625 159.9453125 C93.90438566 162.34142019 93.90296183 164.73752827 93.90196228 167.13363647 C93.89813836 173.44983975 93.88830913 179.76602014 93.8772583 186.08221436 C93.86704149 192.52355642 93.86246408 198.96490217 93.85742188 205.40625 C93.84668677 218.0520934 93.82961183 230.6979198 93.80859375 243.34375 C99.74859375 243.34375 105.68859375 243.34375 111.80859375 243.34375 C112.38145807 257.37892588 112.38145807 257.37892588 107.80859375 262.34375 C107.35484375 262.92125 106.90109375 263.49875 106.43359375 264.09375 C101.82032058 267.64242167 96.26189427 267.6344775 90.68652344 267.61117554 C89.88525402 267.61570665 89.0839846 267.62023776 88.2584343 267.62490618 C85.58238661 267.63753315 82.90654287 267.63593094 80.23046875 267.63427734 C78.30830627 267.64026352 76.38614618 267.64706927 74.46398926 267.65463257 C69.24921909 267.67228728 64.03451457 267.67698763 58.81971741 267.67826414 C55.56156736 267.6796862 52.30343399 267.68395677 49.04528809 267.68925858 C37.67861878 267.70775466 26.31199636 267.71592941 14.9453125 267.71435547 C4.34905522 267.71315307 -6.2469987 267.73427585 -16.8432045 267.7658428 C-25.94229211 267.79198408 -35.04131319 267.80272372 -44.14043808 267.80144465 C-49.57437035 267.80093453 -55.00812173 267.80664569 -60.4420166 267.82780075 C-65.5507375 267.84714775 -70.65910422 267.84733181 -75.76783752 267.83276749 C-77.64234432 267.83067414 -79.5168731 267.83541153 -81.39134216 267.8474884 C-83.95109088 267.86291217 -86.50961385 267.85365242 -89.06933594 267.83822632 C-89.81039204 267.84851344 -90.55144814 267.85880057 -91.31496048 267.86939943 C-97.27186991 267.79010871 -100.47576414 265.57445602 -104.94140625 261.90625 C-109.34319556 256.40401336 -108.3374741 249.98983732 -108.19140625 243.34375 C-102.25140625 243.34375 -96.31140625 243.34375 -90.19140625 243.34375 C-90.20250931 242.01434891 -90.21361237 240.68494781 -90.22505188 239.31526184 C-90.32636328 226.79345513 -90.40134094 214.27173145 -90.45046711 201.74960804 C-90.47657242 195.31165818 -90.51198877 188.87403889 -90.56860352 182.4362793 C-90.62288809 176.22469008 -90.65281974 170.01341904 -90.66579247 163.80161095 C-90.67503859 161.43047768 -90.69309396 159.05936203 -90.72005653 156.68836403 C-90.75629805 153.36973928 -90.76135343 150.05243304 -90.7590332 146.73364258 C-90.77700958 145.75108994 -90.79498596 144.76853729 -90.81350708 143.75621033 C-90.77780229 139.04364839 -90.75097341 137.04222408 -87.71842957 133.25688171 C-86.88451187 132.62554825 -86.05059418 131.99421478 -85.19140625 131.34375 C-84.86140625 131.01375 -84.53140625 130.68375 -84.19140625 130.34375 C-82.19182261 130.30294217 -80.19095371 130.30120644 -78.19140625 130.34375 C-78.2378125 129.76367188 -78.28421875 129.18359375 -78.33203125 128.5859375 C-78.59379338 122.92065708 -78.1639854 119.70389784 -74.19140625 115.34375 C-67.81069761 110.45612373 -60.75421601 106.98631231 -53.50390625 103.59375 C-52.49779297 103.11292969 -51.49167969 102.63210937 -50.45507812 102.13671875 C-45.77040271 99.91944983 -41.17896113 97.80518005 -36.19140625 96.34375 C-36.73410156 95.44914062 -37.27679688 94.55453125 -37.8359375 93.6328125 C-45.73181145 80.40318012 -49.53326955 68.30445295 -46.5 52.8125 C-42.96180851 40.37701525 -36.21627232 30.33799055 -28.19140625 20.34375 C-27.49144531 19.46460937 -26.79148437 18.58546875 -26.0703125 17.6796875 C-19.3682851 9.735633 -10.53916788 1.65320281 0 0 Z M-34.19140625 39.34375 C-38.83457397 47.62542342 -41.76771618 55.09847608 -41.69140625 64.59375 C-41.68568604 65.42567871 -41.67996582 66.25760742 -41.67407227 67.11474609 C-41.33991967 78.71895456 -36.52019342 86.64889167 -29.19140625 95.34375 C-28.20140625 96.82875 -28.20140625 96.82875 -27.19140625 98.34375 C-28.03002197 98.60188477 -28.8686377 98.86001953 -29.73266602 99.12597656 C-33.47334071 100.44301513 -36.98505282 102.06972208 -40.53125 103.828125 C-41.55902306 104.33524017 -41.55902306 104.33524017 -42.6075592 104.8526001 C-44.04991371 105.56655711 -45.49117712 106.28272221 -46.93139648 107.00097656 C-49.11409973 108.08638704 -51.30382018 109.15662504 -53.49414062 110.2265625 C-63.76495819 115.02574892 -63.76495819 115.02574892 -72.19140625 122.34375 C-72.19140625 124.98375 -72.19140625 127.62375 -72.19140625 130.34375 C-23.35140625 130.34375 25.48859375 130.34375 75.80859375 130.34375 C76.52510875 123.08584334 76.52510875 123.08584334 74.57575989 120.4090271 C74.00266586 119.98578156 73.42957184 119.56253601 72.83911133 119.12646484 C72.19672516 118.64908875 71.55433899 118.17171265 70.89248657 117.67987061 C67.47183629 115.48666697 63.97224396 113.59840869 60.3203125 111.8203125 C59.53590286 111.42927338 58.75149323 111.03823425 57.9433136 110.63534546 C56.3010624 109.81905425 54.65642468 109.00754803 53.00952148 108.20068359 C50.48058832 106.96115016 47.95961004 105.70648535 45.43945312 104.44921875 C43.83767747 103.65536586 42.23547879 102.86236579 40.6328125 102.0703125 C39.8776384 101.6954068 39.12246429 101.3205011 38.34440613 100.93423462 C34.74579018 99.01877787 34.74579018 99.01877787 30.80859375 98.34375 C31.69611328 97.27060547 31.69611328 97.27060547 32.6015625 96.17578125 C42.23492042 84.0280069 46.24339253 72.83305506 44.80859375 57.34375 C42.89099948 44.54749594 34.34540751 31.74366074 25.80859375 22.34375 C24.63296875 21.04630859 24.63296875 21.04630859 23.43359375 19.72265625 C17.37860242 13.35545443 10.50675928 6.38802113 1.30859375 5.53125 C-14.12811315 6.80187211 -27.16214244 27.10983979 -34.19140625 39.34375 Z M-84.19140625 137.34375 C-84.28914565 138.78356214 -84.31772338 140.22813903 -84.31838989 141.67126465 C-84.32120972 142.60516525 -84.32402954 143.53906586 -84.32693481 144.50126648 C-84.32491058 145.53403214 -84.32288635 146.56679779 -84.32080078 147.63085938 C-84.3225531 148.71204544 -84.32430542 149.79323151 -84.32611084 150.90718079 C-84.33053183 154.50063659 -84.32759049 158.09404365 -84.32421875 161.6875 C-84.32489172 164.17232269 -84.32586168 166.65714531 -84.32711792 169.14196777 C-84.32878483 175.02688375 -84.32527202 180.91178187 -84.31996715 186.79669523 C-84.31621233 191.49744598 -84.31753992 196.19817581 -84.32177734 200.89892578 C-84.32755662 207.3644929 -84.32849078 213.83003971 -84.32522202 220.29560852 C-84.3245525 222.76768498 -84.32538202 225.2397623 -84.32770157 227.71183777 C-84.33022664 231.16012898 -84.32638955 234.60835435 -84.32080078 238.05664062 C-84.32282501 239.08940628 -84.32484924 240.12217194 -84.32693481 241.18623352 C-84.32411499 242.12013412 -84.32129517 243.05403473 -84.31838989 244.01623535 C-84.31801287 244.83256691 -84.31763584 245.64889847 -84.31724739 246.48996735 C-84.39441588 248.35993788 -84.39441588 248.35993788 -83.19140625 249.34375 C-81.00411701 249.44293212 -78.81356012 249.47007398 -76.62402344 249.47073364 C-75.92967068 249.47229363 -75.23531792 249.47385362 -74.51992416 249.47546089 C-72.17602207 249.47947311 -69.83218391 249.4762804 -67.48828125 249.47314453 C-65.81490033 249.47449847 -64.1415197 249.47627837 -62.46813965 249.47845459 C-57.91041845 249.48302976 -53.35271978 249.48123902 -48.79499817 249.4780755 C-44.03618303 249.47555233 -39.27736989 249.47788932 -34.51855469 249.47946167 C-26.52538708 249.48128349 -18.5322287 249.47887673 -10.5390625 249.47412109 C-1.28402339 249.46867845 7.97099369 249.4704411 17.22603226 249.4759475 C25.1572145 249.48047827 33.08839009 249.48112935 41.01957321 249.47850883 C45.76309317 249.47694586 50.50660277 249.47675284 55.25012207 249.48004532 C59.70860328 249.48292352 64.16705595 249.48094929 68.62553406 249.47515106 C70.26669772 249.47382319 71.90786376 249.47421804 73.54902649 249.47641373 C75.77978761 249.47912417 78.01045582 249.47574544 80.24121094 249.47073364 C81.49262878 249.47035662 82.74404663 249.46997959 84.03338623 249.46959114 C86.71665665 249.66047052 86.71665665 249.66047052 87.80859375 248.34375 C87.90633315 246.90393786 87.93491088 245.45936097 87.93557739 244.01623535 C87.93839722 243.08233475 87.94121704 242.14843414 87.94412231 241.18623352 C87.94209808 240.15346786 87.94007385 239.12070221 87.93798828 238.05664062 C87.9397406 236.97545456 87.94149292 235.89426849 87.94329834 234.78031921 C87.94771933 231.18686341 87.94477799 227.59345635 87.94140625 224 C87.94207922 221.51517731 87.94304918 219.03035469 87.94430542 216.54553223 C87.94597233 210.66061625 87.94245952 204.77571813 87.93715465 198.89080477 C87.93339983 194.19005402 87.93472742 189.48932419 87.93896484 184.78857422 C87.94474412 178.3230071 87.94567828 171.85746029 87.94240952 165.39189148 C87.94174 162.91981502 87.94256952 160.4477377 87.94488907 157.97566223 C87.94741414 154.52737102 87.94357705 151.07914565 87.93798828 147.63085938 C87.94102463 146.08171089 87.94102463 146.08171089 87.94412231 144.50126648 C87.94130249 143.56736588 87.93848267 142.63346527 87.93557739 141.67126465 C87.93520037 140.85493309 87.93482334 140.03860153 87.93443489 139.19753265 C88.01160338 137.32756212 88.01160338 137.32756212 86.80859375 136.34375 C84.62130451 136.24456788 82.43074762 136.21742602 80.24121094 136.21676636 C79.1996818 136.21442637 79.1996818 136.21442637 78.13711166 136.21203911 C75.79320957 136.20802689 73.44937141 136.2112196 71.10546875 136.21435547 C69.43208783 136.21300153 67.7587072 136.21122163 66.08532715 136.20904541 C61.52760595 136.20447024 56.96990728 136.20626098 52.41218567 136.2094245 C47.65337053 136.21194767 42.89455739 136.20961068 38.13574219 136.20803833 C30.14257458 136.20621651 22.1494162 136.20862327 14.15625 136.21337891 C4.90121089 136.21882155 -4.35380619 136.2170589 -13.60884476 136.2115525 C-21.540027 136.20702173 -29.47120259 136.20637065 -37.40238571 136.20899117 C-42.14590567 136.21055414 -46.88941527 136.21074716 -51.63293457 136.20745468 C-56.09141578 136.20457648 -60.54986845 136.20655071 -65.00834656 136.21234894 C-66.64951022 136.21367681 -68.29067626 136.21328196 -69.93183899 136.21108627 C-72.16260011 136.20837583 -74.39326832 136.21175456 -76.62402344 136.21676636 C-77.87544128 136.21714338 -79.12685913 136.21752041 -80.41619873 136.21790886 C-83.09946915 136.02702948 -83.09946915 136.02702948 -84.19140625 137.34375 Z " fill="#0C0C0C" transform="translate(245.19140625,48.65625)"/>
<path d="M0 0 C1.77734375 1.125 1.77734375 1.125 3.375 2.3125 C4.426875 3.034375 5.47875 3.75625 6.5625 4.5 C12.63579172 10.57329172 15.45340853 17.38652487 15.625 25.9375 C15.38726003 39.3896198 8.97764703 53.04085181 -0.375 62.625 C-4.91677309 66.91354474 -8.80877976 69.09090129 -15.12109375 68.9453125 C-22.66901393 67.03772581 -28.40849289 59.0569875 -32.31640625 52.69140625 C-38.10127286 42.1750368 -43.22807367 29.92612436 -39.9375 17.7734375 C-37.15456606 10.09717805 -33.29951196 4.60943839 -26.25 0.375 C-18.64806245 -3.10346233 -7.68870405 -3.60777651 0 0 Z " fill="#FCFCFC" transform="translate(259.625,87.6875)"/>
<path d="M0 0 C2.06066104 -0.1357683 4.12392757 -0.23233903 6.1875 -0.3125 C7.33605469 -0.37050781 8.48460937 -0.42851562 9.66796875 -0.48828125 C13 0 13 0 15.2646637 2.49083519 C18.74425905 5.68271994 20.43278055 5.62792423 25.09741211 5.63491821 C25.80052741 5.64271817 26.50364271 5.65051812 27.22806454 5.65855443 C29.57836117 5.67845975 31.92703583 5.66271753 34.27734375 5.64697266 C35.964538 5.6537495 37.65172486 5.66265301 39.33889771 5.67352295 C43.91748824 5.69631515 48.49551539 5.68748039 53.07411575 5.67162752 C57.86575081 5.65896809 62.65733766 5.67070875 67.44897461 5.67855835 C75.49569357 5.68765479 83.54218307 5.67566716 91.58886719 5.65185547 C100.89180483 5.62464418 110.19419458 5.63345835 119.49711895 5.6609875 C127.48454064 5.68367773 135.4717974 5.68687907 143.45924091 5.67379415 C148.2297444 5.66599916 152.99999036 5.66495934 157.77047729 5.68147659 C162.25553914 5.69592088 166.73989467 5.6859007 171.22488022 5.65700531 C172.87080589 5.65039423 174.51679101 5.65229262 176.16269302 5.66331863 C178.41012679 5.67698621 180.65529831 5.65984834 182.90258789 5.63491821 C184.15987198 5.63303308 185.41715607 5.63114796 186.71253967 5.6292057 C190.86533366 4.83437888 192.20802764 3.07080606 195 0 C198.33203125 -0.48828125 198.33203125 -0.48828125 201.8125 -0.3125 C202.97394531 -0.26738281 204.13539063 -0.22226562 205.33203125 -0.17578125 C206.65267578 -0.08876953 206.65267578 -0.08876953 208 0 C208.21875 5.6484375 208.21875 5.6484375 206.25 8.8125 C202.18670867 12.76292213 197.60566288 12.14852126 192.18763733 12.14717102 C190.99948879 12.15268605 190.99948879 12.15268605 189.78733724 12.1583125 C187.13043506 12.16933471 184.473572 12.17319063 181.81665039 12.17700195 C179.91286597 12.18326751 178.00908277 12.18991439 176.1053009 12.19691467 C169.85276133 12.21793937 163.60022154 12.22831277 157.34765625 12.23828125 C155.19572881 12.24232883 153.04380149 12.24644575 150.89187431 12.25063133 C140.78607388 12.26967627 130.68028074 12.28391108 120.57446581 12.2922433 C108.90213584 12.30202589 97.22999499 12.32837499 85.55773169 12.36874419 C76.53853761 12.39886976 67.51939787 12.41370863 58.50015444 12.41702431 C53.11148368 12.41937807 47.72301514 12.42838148 42.33439827 12.45348549 C37.26758154 12.47671014 32.20110101 12.48102207 27.13424492 12.47072411 C25.27382669 12.47022733 23.41339221 12.47658925 21.55302429 12.49028015 C19.01472575 12.50791661 16.47764472 12.50093431 13.93934631 12.48774719 C12.83301939 12.50420106 12.83301939 12.50420106 11.70434242 12.52098733 C8.08718167 12.47556079 6.12150359 12.07806698 3.04798031 10.10330486 C-0.13501213 6.83432642 0.22230354 4.44607075 0 0 Z " fill="#F9F9F9" transform="translate(143,298)"/>
<path d="M0 0 C7.48318991 6.05782041 12.32553502 13.65196717 13.77734375 23.265625 C14.31446337 39.68000064 6.81930293 55.73943465 -3.625 68.0625 C-9.18916269 73.97180812 -12.86818404 76.36541434 -21.125 76.8125 C-27.71825037 76.58592782 -31.16060982 74.86461883 -35.6875 70.1875 C-36.29078125 69.59582031 -36.8940625 69.00414062 -37.515625 68.39453125 C-48.40203752 56.91646587 -55.31885879 40.03430507 -55 24.2109375 C-54.07673406 15.27833954 -49.36235503 7.46470139 -42.8046875 1.46484375 C-30.30438237 -8.51088995 -13.34475148 -8.99994867 0 0 Z M-42.0625 8.375 C-47.23780713 15.15288803 -49.78365596 22.70963557 -48.6875 31.1875 C-46.55325491 45.33982426 -39.89555575 59.12378628 -28.6875 68.1875 C-24.63426971 70.88965352 -21.44653552 70.83459777 -16.6875 70.1875 C-13.44477815 68.72062969 -13.44477815 68.72062969 -10.6875 66.1875 C-10.14609375 65.75953125 -9.6046875 65.3315625 -9.046875 64.890625 C0.31834093 56.70660747 6.29740064 42.77293822 7.5859375 30.60546875 C7.93760383 21.80028485 5.42154916 14.75752284 -0.078125 7.91015625 C-4.54083302 3.13332558 -9.88147819 0.47382876 -16.32421875 -0.18359375 C-26.55312527 -0.49436127 -34.63966201 0.62144151 -42.0625 8.375 Z " fill="#0D0D0D" transform="translate(267.6875,85.8125)"/>
<path d="M0 0 C0.94875 0.04125 1.8975 0.0825 2.875 0.125 C3.535 3.095 4.195 6.065 4.875 9.125 C5.205 8.795 5.535 8.465 5.875 8.125 C12.1531597 7.53272078 12.1531597 7.53272078 15.3125 10.125 C16.0859375 11.115 16.0859375 11.115 16.875 12.125 C17.41125 11.135 17.9475 10.145 18.5 9.125 C20.875 6.125 20.875 6.125 23.9375 5.5625 C27.08030713 6.16431413 28.0623677 6.54915411 29.875 9.125 C30.78044113 11.84132338 31.03203921 13.62432777 31.12109375 16.43359375 C31.15396484 17.26310547 31.18683594 18.09261719 31.22070312 18.94726562 C31.28175943 20.68672089 31.33906886 22.42631184 31.39257812 24.16601562 C31.42673828 24.99681641 31.46089844 25.82761719 31.49609375 26.68359375 C31.5211499 27.43954834 31.54620605 28.19550293 31.57202148 28.97436523 C31.90875503 31.36460362 32.79809077 32.9841497 33.875 35.125 C33.5 37.875 33.5 37.875 32.875 40.125 C30.625 40.875 30.625 40.875 27.875 41.125 C25.625 39.875 25.625 39.875 23.875 37.125 C23.40734314 34.26850133 23.18640884 31.47674261 23.05078125 28.5859375 C23.03234258 26.12105866 23.03234258 26.12105866 21.875 24.125 C21.68164062 24.82367188 21.48828125 25.52234375 21.2890625 26.2421875 C20.89847656 27.60730469 20.89847656 27.60730469 20.5 29 C20.11714844 30.35738281 20.11714844 30.35738281 19.7265625 31.7421875 C18.875 34.125 18.875 34.125 16.875 36.125 C15.225 36.125 13.575 36.125 11.875 36.125 C10.885 32.165 9.895 28.205 8.875 24.125 C8.68164062 25.16140625 8.48828125 26.1978125 8.2890625 27.265625 C8.02635133 28.63547609 7.76331329 30.00526452 7.5 31.375 C7.37367188 32.05691406 7.24734375 32.73882812 7.1171875 33.44140625 C6.43593633 36.94984976 5.70646585 40.03539673 3.875 43.125 C1.895 43.125 -0.085 43.125 -2.125 43.125 C-3.18735285 36.86597115 -3.41306512 30.65092289 -3.625 24.3125 C-3.85494857 17.51198399 -4.17321165 10.82319047 -5.11914062 4.0793457 C-5.12107422 3.43441162 -5.12300781 2.78947754 -5.125 2.125 C-3.125 0.125 -3.125 0.125 0 0 Z " fill="#E0DED9" transform="translate(253.125,365.875)"/>
<path d="M0 0 C6.35298368 6.49736967 7.44125093 11.29031434 7.43603516 20.01196289 C7.28351512 26.50840396 6.2702977 31.86893549 2 37 C-1.05334559 39.16278646 -3.04489624 39.84451799 -6.6875 40.4375 C-9 40 -9 40 -10.62182617 38.27587891 C-12.21505253 35.64486808 -12.37414631 34.19946304 -12.36328125 31.1484375 C-12.36263672 30.21386719 -12.36199219 29.27929688 -12.36132812 28.31640625 C-12.34521484 27.34574219 -12.32910156 26.37507813 -12.3125 25.375 C-12.31572266 24.42753906 -12.31894531 23.48007812 -12.32226562 22.50390625 C-12.20796221 7.31194332 -12.20796221 7.31194332 -8.25 1.375 C-5.15070628 -0.51901283 -3.56895065 -0.72835728 0 0 Z " fill="#DEDCD7" transform="translate(214,369)"/>
<path d="M0 0 C3.375 1.125 3.375 1.125 5.3125 3.5625 C6.68703491 8.17123471 6.62955745 12.35440486 6.375 17.125 C4.01953125 17.28125 4.01953125 17.28125 1.375 17.125 C-0.9375 14.625 -0.9375 14.625 -2.625 12.125 C-4.32320698 19.38786736 -6.04333886 26.86998341 -3.625 34.125 C-1.975 34.125 -0.325 34.125 1.375 34.125 C1.67792969 33.41472656 1.98085937 32.70445312 2.29296875 31.97265625 C2.71191406 31.05355469 3.13085938 30.13445312 3.5625 29.1875 C3.96855469 28.27097656 4.37460938 27.35445313 4.79296875 26.41015625 C6.375 24.125 6.375 24.125 8.98828125 23.24609375 C10.16970703 23.18615234 10.16970703 23.18615234 11.375 23.125 C12.375 24.125 12.375 24.125 12.625 27.8125 C12.55873447 31.92832568 11.67348167 34.6376485 9.375 38.125 C4.77837101 42.27317738 1.74935057 43.6099193 -4.3671875 43.53125 C-7.33699312 42.99689051 -8.85001322 41.50482123 -10.65234375 39.12109375 C-13.47438755 33.32967054 -13.93222544 28.02927518 -13.5 21.75 C-13.45069336 21.00339111 -13.40138672 20.25678223 -13.35058594 19.48754883 C-12.75354749 12.31292839 -11.12470605 6.96250417 -6.3125 1.5 C-3.625 0.125 -3.625 0.125 0 0 Z " fill="#DBD9D5" transform="translate(187.625,365.875)"/>
<path d="M0 0 C0.96228516 0.01869141 1.92457031 0.03738281 2.91601562 0.05664062 C9.9141955 0.23834775 9.9141955 0.23834775 12.3125 1.4375 C11.4375 5.3125 11.4375 5.3125 10.3125 6.4375 C9.86323292 10.39105026 10.00378572 11.99372323 12.3125 15.3125 C12.9725 16.01375 13.6325 16.715 14.3125 17.4375 C10.5625 23.1875 10.5625 23.1875 8.3125 25.4375 C5.47447848 25.6901603 2.77634221 25.80778432 -0.0625 25.8125 C-0.83078125 25.83699219 -1.5990625 25.86148437 -2.390625 25.88671875 C-6.10803591 25.90601327 -8.05704917 25.90070905 -11.1171875 23.65234375 C-14.78427422 18.48010949 -16.62931448 12.79474777 -15.6875 6.4375 C-11.62409854 -0.505209 -7.63844662 -0.36768116 0 0 Z " fill="#040404" transform="translate(247.6875,232.5625)"/>
<path d="M0 0 C2.5048111 1.87860833 2.98700625 2.96101874 4 6 C4.06802967 7.72795352 4.08495645 9.45835365 4.0625 11.1875 C4.05347656 12.08855469 4.04445313 12.98960937 4.03515625 13.91796875 C4.02355469 14.60503906 4.01195312 15.29210937 4 16 C1.61328125 16.125 1.61328125 16.125 -1 16 C-2.8125 14 -2.8125 14 -4 12 C-6.44067583 18.5593163 -6.41770071 25.05451138 -6 32 C-5.67 32.66 -5.34 33.32 -5 34 C-3.35 34 -1.7 34 0 34 C1.65 30.37 3.3 26.74 5 23 C6.65 23 8.3 23 10 23 C11 24 11 24 11.3125 27.0625 C10.86943146 32.64516361 9.05592189 37.06867944 4.9375 40.9375 C0.85217951 43.17783704 -3.42877958 43.94638548 -8 43 C-12.49146485 38.80145677 -14.7635735 34.68666481 -15.30078125 28.58203125 C-15.3288555 19.5514813 -15.31552775 10.81112062 -9.4375 3.4375 C-6.20598492 0.20598492 -4.52448535 -0.4414132 0 0 Z " fill="#DDDBD6" transform="translate(314,366)"/>
<path d="M0 0 C0.66 0.33 1.32 0.66 2 1 C1.67 3.31 1.34 5.62 1 8 C0.2575 8.144375 -0.485 8.28875 -1.25 8.4375 C-2.1575 8.623125 -3.065 8.80875 -4 9 C-4.70125 9.103125 -5.4025 9.20625 -6.125 9.3125 C-8.7228429 10.2650424 -9.56643834 11.6789954 -11 14 C-11.33 14.99 -11.66 15.98 -12 17 C-11.175 16.67 -10.35 16.34 -9.5 16 C-5.25147426 14.7861355 -2.40910925 14.57331201 2 15 C5.0353841 16.97299966 5.79547025 18.20047461 6.6875 21.6875 C5.37338988 28.01912151 0.83399011 32.50286522 -4.0625 36.5 C-7.15862492 38.08099996 -9.52790521 38.84217751 -13 39 C-13.66 38.34 -14.32 37.68 -15 37 C-15 36.01 -15 35.02 -15 34 C-13.515 33.505 -13.515 33.505 -12 33 C-12.33 32.34 -12.66 31.68 -13 31 C-8.545 27.535 -8.545 27.535 -4 24 C-4.86625 24.33 -5.7325 24.66 -6.625 25 C-10.08987264 26.02662893 -12.42646564 26.54379871 -16 26 C-19.37886909 23.15463656 -19.94818455 21.46633903 -20.4375 17.0625 C-20.08631967 11.21315265 -17.8208958 7.53337131 -13.5 3.6875 C-9.14968984 0.05270138 -5.61595782 -0.20421665 0 0 Z " fill="#DDDBD6" transform="translate(242,372)"/>
<path d="M0 0 C2.33944736 0.28730055 4.6739143 0.61936779 7 1 C7.0493521 6.51756476 7.08569662 12.03500171 7.10986328 17.55273438 C7.11993534 19.43068682 7.13359362 21.30862353 7.15087891 23.18652344 C7.17507453 25.8822009 7.18647083 28.57767146 7.1953125 31.2734375 C7.20563507 32.11619232 7.21595764 32.95894714 7.22659302 33.82723999 C7.22699144 35.88621247 7.12257588 37.94467935 7 40 C6.34 40.66 5.68 41.32 5 42 C0.44444444 41.44444444 0.44444444 41.44444444 -1 40 C-1.10106874 37.12735944 -1.13969672 34.27926372 -1.1328125 31.40625 C-1.13376923 30.54439087 -1.13472595 29.68253174 -1.13571167 28.79455566 C-1.1363935 26.96866788 -1.13453904 25.14277769 -1.13037109 23.31689453 C-1.12502286 20.51198922 -1.13031599 17.70724405 -1.13671875 14.90234375 C-1.13605797 13.13281214 -1.13477681 11.36328064 -1.1328125 9.59375 C-1.13483673 8.74897095 -1.13686096 7.90419189 -1.13894653 7.03381348 C-1.11495031 1.11495031 -1.11495031 1.11495031 0 0 Z " fill="#E0DED9" transform="translate(290,368)"/>
<path d="M0 0 C1.258125 -0.04125 2.51625 -0.0825 3.8125 -0.125 C4.52019531 -0.14820313 5.22789062 -0.17140625 5.95703125 -0.1953125 C8 0 8 0 11 2 C11.27324172 4.5957963 11.13200425 6.56438597 10.375 9.0625 C9.87811029 11.6297635 10.67320572 12.81469177 12 15 C10.68 15 9.36 15 8 15 C7.71125 14.360625 7.4225 13.72125 7.125 13.0625 C6.17176549 10.84793921 6.17176549 10.84793921 4 10 C4 11.65 4 13.3 4 15 C2.68 15 1.36 15 0 15 C0 10.05 0 5.1 0 0 Z " fill="#BCBAB6" transform="translate(316,438)"/>
<path d="M0 0 C1.32 0 2.64 0 4 0 C4.33 1.32 4.66 2.64 5 4 C5.6496875 3.01 5.6496875 3.01 6.3125 2 C6.869375 1.34 7.42625 0.68 8 0 C8.99 0 9.98 0 11 0 C10.649375 0.53625 10.29875 1.0725 9.9375 1.625 C8.35272252 5.6397696 9.61204682 8.95024433 11.0625 12.875 C11.371875 13.57625 11.68125 14.2775 12 15 C9.11424181 14.60196439 8.17810487 14.20990931 6.25 11.9375 C5.8375 11.298125 5.425 10.65875 5 10 C4.67 11.65 4.34 13.3 4 15 C2.68 15 1.36 15 0 15 C0 10.05 0 5.1 0 0 Z " fill="#CCCAC5" transform="translate(284,438)"/>
<path d="M0 0 C1.65 0 3.3 0 5 0 C5.67220351 1.93558599 6.33758077 3.87354372 7 5.8125 C7.556875 7.43091797 7.556875 7.43091797 8.125 9.08203125 C9 12 9 12 9 15 C7.68 15 6.36 15 5 15 C5 14.01 5 13.02 5 12 C3.35 12 1.7 12 0 12 C0 12.99 0 13.98 0 15 C-1.32 15 -2.64 15 -4 15 C-3.52229477 13.06213915 -3.04278429 11.12472326 -2.5625 9.1875 C-2.29566406 8.10855469 -2.02882812 7.02960938 -1.75390625 5.91796875 C-1.23922588 3.9259157 -0.65062825 1.95188476 0 0 Z " fill="#BEBDB9" transform="translate(256,438)"/>
<path d="M0 0 C1.258125 -0.04125 2.51625 -0.0825 3.8125 -0.125 C4.52019531 -0.14820313 5.22789062 -0.17140625 5.95703125 -0.1953125 C8 0 8 0 11 2 C11.4409511 4.86618213 11.41501866 6.36655047 9.8125 8.8125 C7.44017475 10.36678206 5.77958655 10.22537188 3 10 C3 11.65 3 13.3 3 15 C2.01 15 1.02 15 0 15 C0 10.05 0 5.1 0 0 Z " fill="#D8D6D1" transform="translate(347,438)"/>
<path d="M0 0 C1.32 0 2.64 0 4 0 C4.67220351 1.93558599 5.33758077 3.87354372 6 5.8125 C6.556875 7.43091797 6.556875 7.43091797 7.125 9.08203125 C8 12 8 12 8 15 C7.01 15 6.02 15 5 15 C4.67 14.34 4.34 13.68 4 13 C1.47266765 12.34444881 1.47266765 12.34444881 -1 12 C-1 12.99 -1 13.98 -1 15 C-1.99 15 -2.98 15 -4 15 C-3.50341703 9.33895411 -2.45489316 5.12325529 0 0 Z " fill="#D2D0CC" transform="translate(111,438)"/>
<path d="M0 0 C7.37042925 -0.36248013 7.37042925 -0.36248013 10.0625 1.1875 C11 3 11 3 10.8125 5.5625 C10 8 10 8 8 10 C5.375 10.125 5.375 10.125 3 10 C3 11.65 3 13.3 3 15 C2.01 15 1.02 15 0 15 C0 10.05 0 5.1 0 0 Z " fill="#E1DFDA" transform="translate(208,438)"/>
<path d="M0 0 C3.3 0 6.6 0 10 0 C10 0.99 10 1.98 10 3 C8.02 3 6.04 3 4 3 C4 3.99 4 4.98 4 6 C5.65 6 7.3 6 9 6 C9 6.99 9 7.98 9 9 C7.35 9 5.7 9 4 9 C4 9.99 4 10.98 4 12 C5.98 12 7.96 12 10 12 C10 12.99 10 13.98 10 15 C6.7 15 3.4 15 0 15 C0 10.05 0 5.1 0 0 Z " fill="#C7C5C1" transform="translate(332,438)"/>
<path d="M0 0 C3.3 0 6.6 0 10 0 C10 0.99 10 1.98 10 3 C8.02 3 6.04 3 4 3 C4 3.99 4 4.98 4 6 C5.65 6 7.3 6 9 6 C9 6.99 9 7.98 9 9 C7.35 9 5.7 9 4 9 C4 9.99 4 10.98 4 12 C5.98 12 7.96 12 10 12 C10 12.99 10 13.98 10 15 C6.7 15 3.4 15 0 15 C0 10.05 0 5.1 0 0 Z " fill="#C7C5C1" transform="translate(93,438)"/>
<path d="M0 0 C1.65 0.33 3.3 0.66 5 1 C5.50692692 2.5811292 6.00526443 4.16501383 6.5 5.75 C6.7784375 6.63171875 7.056875 7.5134375 7.34375 8.421875 C8 11 8 11 8 15 C7.01 15 6.02 15 5 15 C5 14.01 5 13.02 5 12 C3.02 12 1.04 12 -1 12 C-1 12.99 -1 13.98 -1 15 C-1.99 15 -2.98 15 -4 15 C-3.43179252 9.54520815 -2.05362055 5.08940744 0 0 Z " fill="#D5D3CF" transform="translate(380,438)"/>
<path d="M0 0 C0.99 0 1.98 0 3 0 C3 1.98 3 3.96 3 6 C4.65 6 6.3 6 8 6 C8 4.02 8 2.04 8 0 C8.99 0 9.98 0 11 0 C11 4.95 11 9.9 11 15 C10.01 15 9.02 15 8 15 C8 13.02 8 11.04 8 9 C6.35 9 4.7 9 3 9 C3 10.98 3 12.96 3 15 C2.01 15 1.02 15 0 15 C0 10.05 0 5.1 0 0 Z " fill="#E2E0DB" transform="translate(237,438)"/>
<path d="M0 0 C2.97 0 5.94 0 9 0 C9 0.99 9 1.98 9 3 C7.35 3 5.7 3 4 3 C4 3.99 4 4.98 4 6 C5.32 6 6.64 6 8 6 C8 6.99 8 7.98 8 9 C6.68 9 5.36 9 4 9 C4 9.99 4 10.98 4 12 C5.98 12 7.96 12 10 12 C10 12.99 10 13.98 10 15 C6.7 15 3.4 15 0 15 C0 10.05 0 5.1 0 0 Z " fill="#CDCBC7" transform="translate(193,438)"/>
<path d="M0 0 C2.97 0 5.94 0 9 0 C9 0.99 9 1.98 9 3 C7.02 3 5.04 3 3 3 C3 3.99 3 4.98 3 6 C4.65 6 6.3 6 8 6 C8 6.99 8 7.98 8 9 C6.35 9 4.7 9 3 9 C3 9.99 3 10.98 3 12 C4.98 12 6.96 12 9 12 C9 12.99 9 13.98 9 15 C6.03 15 3.06 15 0 15 C0 10.05 0 5.1 0 0 Z " fill="#D8D6D2" transform="translate(363,438)"/>
<path d="M0 0 C2.97 0 5.94 0 9 0 C9 0.99 9 1.98 9 3 C7.02 3 5.04 3 3 3 C3 3.99 3 4.98 3 6 C4.65 6 6.3 6 8 6 C8 6.99 8 7.98 8 9 C6.35 9 4.7 9 3 9 C3 9.99 3 10.98 3 12 C4.98 12 6.96 12 9 12 C9 12.99 9 13.98 9 15 C6.03 15 3.06 15 0 15 C0 10.05 0 5.1 0 0 Z " fill="#D8D6D2" transform="translate(179,438)"/>
<path d="M0 0 C3.625 0.375 3.625 0.375 7 1 C6.67 1.99 6.34 2.98 6 4 C4.35 3.67 2.7 3.34 1 3 C1.88611695 5.24572616 1.88611695 5.24572616 4.5 6.375 C7 8 7 8 8 10 C8 12 8 12 6.9375 13.75 C4.24828988 15.48497427 2.13104437 15.20873629 -1 15 C-1.33 13.68 -1.66 12.36 -2 11 C0.97 11.495 0.97 11.495 4 12 C2.06745228 9.9754262 0.36841312 8.57894208 -2 7 C-2.3125 4.5 -2.3125 4.5 -2 2 C-1.34 1.34 -0.68 0.68 0 0 Z " fill="#D3D1CC" transform="translate(152,438)"/>
<path d="M0 0 C3.96 0 7.92 0 12 0 C12 0.99 12 1.98 12 3 C10.68 3 9.36 3 8 3 C8 6.96 8 10.92 8 15 C6.68 15 5.36 15 4 15 C4 11.04 4 7.08 4 3 C2.68 3 1.36 3 0 3 C0 2.01 0 1.02 0 0 Z " fill="#C6C4C0" transform="translate(120,438)"/>
<path d="M0 0 C-0.33 0.99 -0.66 1.98 -1 3 C-2.65 3 -4.3 3 -6 3 C-6 5.31 -6 7.62 -6 10 C-4.02 10 -2.04 10 0 10 C-0.33 11.32 -0.66 12.64 -1 14 C-3.75 14.3125 -3.75 14.3125 -7 14 C-9.4375 11.9375 -9.4375 11.9375 -11 9 C-10.93940468 5.48547155 -10.60267457 3.07142146 -8.875 0 C-5.85200363 -1.61226473 -3.2411345 -0.67268829 0 0 Z " fill="#CECCC8" transform="translate(279,439)"/>
<path d="M0 0 C3.63 0 7.26 0 11 0 C11 0.99 11 1.98 11 3 C9.68 3 8.36 3 7 3 C7 6.96 7 10.92 7 15 C6.01 15 5.02 15 4 15 C4 11.04 4 7.08 4 3 C2.68 3 1.36 3 0 3 C0 2.01 0 1.02 0 0 Z " fill="#DEDCD7" transform="translate(390,438)"/>
<path d="M0 0 C0.99 0 1.98 0 3 0 C3 3.96 3 7.92 3 12 C4.98 12 6.96 12 9 12 C9 12.99 9 13.98 9 15 C6.03 15 3.06 15 0 15 C0 10.05 0 5.1 0 0 Z " fill="#DBD9D4" transform="translate(165,438)"/>
<path d="M0 0 C0.36625971 4.51720311 0.36625971 4.51720311 -1.375 6.8125 C-3 8 -3 8 -5 8 C-5 7.34 -5 6.68 -5 6 C-5.99 6 -6.98 6 -8 6 C-8 4.02 -8 2.04 -8 0 C-4.71023192 -1.09658936 -3.28696233 -0.79953138 0 0 Z " fill="#9A9996" transform="translate(358,440)"/>
<path d="M0 0 C0.6875 2.3125 0.6875 2.3125 1 5 C-0.3125 6.8125 -0.3125 6.8125 -2 8 C-2.66 8 -3.32 8 -4 8 C-4 7.34 -4 6.68 -4 6 C-4.99 6 -5.98 6 -7 6 C-7 4.02 -7 2.04 -7 0 C-3.86650268 -1.04449911 -3.01031744 -0.93423645 0 0 Z " fill="#979592" transform="translate(218,440)"/>
<path d="M0 0 C2.5625 0.1875 2.5625 0.1875 4.5625 2.1875 C4.1875 4.8125 4.1875 4.8125 3.5625 7.1875 C1.1875 7.8125 1.1875 7.8125 -1.4375 8.1875 C-3.4375 6.1875 -3.4375 6.1875 -3.625 3.625 C-3.37291261 0.34786389 -3.27713611 0.25208739 0 0 Z " fill="#DBD9D4" transform="translate(291.4375,356.8125)"/>
<path d="M0 0 C0.66 0 1.32 0 2 0 C2.05425226 2.39614126 2.09379027 4.79103853 2.125 7.1875 C2.15013672 8.19780273 2.15013672 8.19780273 2.17578125 9.22851562 C2.21538674 13.28807807 1.80020002 16.34998815 0 20 C-0.33 20 -0.66 20 -1 20 C-1.02888514 16.85418577 -1.04675923 13.70840531 -1.0625 10.5625 C-1.07087891 9.66466797 -1.07925781 8.76683594 -1.08789062 7.84179688 C-1.09111328 6.98779297 -1.09433594 6.13378906 -1.09765625 5.25390625 C-1.10551147 4.06776733 -1.10551147 4.06776733 -1.11352539 2.85766602 C-1 1 -1 1 0 0 Z " fill="#282727" transform="translate(211,379)"/>
<path d="M0 0 C-1.07401108 2.91517292 -1.77810176 4.77810176 -4 7 C-4.99 7 -5.98 7 -7 7 C-6.6875 4.625 -6.6875 4.625 -6 2 C-3 0 -3 0 0 0 Z " fill="#1F1F1F" transform="translate(254,225)"/>
<path d="M0 0 C2 3 2 3 2 6 C1.34 6 0.68 6 0 6 C0 6.66 0 7.32 0 8 C-0.99 8 -1.98 8 -3 8 C-3 6.02 -3 4.04 -3 2 C-2.01 2 -1.02 2 0 2 C0 1.34 0 0.68 0 0 Z " fill="#92908E" transform="translate(384,439)"/>
<path d="M0 0 C0.99 0.66 1.98 1.32 3 2 C3.1875 4.625 3.1875 4.625 3 7 C2.01 7 1.02 7 0 7 C-0.66 6.34 -1.32 5.68 -2 5 C-1.46428571 1.46428571 -1.46428571 1.46428571 0 0 Z " fill="#8C8B88" transform="translate(111,440)"/>
<path d="M0 0 C1.65 0 3.3 0 5 0 C5.33 1.65 5.66 3.3 6 5 C5.34 5 4.68 5 4 5 C3.67 5.66 3.34 6.32 3 7 C3 5.35 3 3.7 3 2 C2.01 2.33 1.02 2.66 0 3 C0 2.01 0 1.02 0 0 Z " fill="#D1CFCB" transform="translate(256,438)"/>
<path d="M0 0 C0.66 0.33 1.32 0.66 2 1 C-0.64 3.64 -3.28 6.28 -6 9 C-6 6 -6 6 -3.5625 3.375 C-2.716875 2.59125 -1.87125 1.8075 -1 1 C-0.67 0.67 -0.34 0.34 0 0 Z " fill="#1F1F1F" transform="translate(175,161)"/>
</svg>
